<svg width="33" height="33" viewBox="0 0 33 33" fill="none" xmlns="http://www.w3.org/2000/svg">
<path fill-rule="evenodd" clip-rule="evenodd" d="M3.25018 1.16606C3.25018 0.955151 3.42842 0.78418 3.64829 0.78418H32.3116C32.5315 0.78418 32.7097 0.955151 32.7097 1.16606V28.7884C32.7097 28.9993 32.5315 29.1703 32.3116 29.1703C32.0918 29.1703 31.9135 28.9993 31.9135 28.7884V1.54793H3.64829C3.42842 1.54793 3.25018 1.37696 3.25018 1.16606Z" fill="white" stroke="white" stroke-width="0.5" stroke-linecap="round" stroke-linejoin="round"/>
<path d="M3.668 29.3462L3.793 29.3462L3.793 29.2212L3.793 5.46227L5.41889 7.08816C5.62195 7.29122 5.95117 7.29122 6.15423 7.08816C6.35729 6.8851 6.35729 6.55588 6.15423 6.35282L3.64071 3.8393C3.43765 3.63625 3.10843 3.63625 2.90537 3.8393L0.391855 6.35283C0.188797 6.55588 0.188798 6.8851 0.391855 7.08816C0.594913 7.29122 0.924134 7.29122 1.12719 7.08816L2.75308 5.46227L2.75308 29.2212L2.75308 29.3462L2.87808 29.3462L3.668 29.3462Z" fill="white" stroke="white" stroke-width="0.25"/>
<path d="M2.75214 29.6162V29.7412H2.87714L26.7605 29.7412L25.1263 31.3668C24.9222 31.57 24.9222 31.8995 25.1263 32.1026C25.3301 32.3054 25.6603 32.3054 25.8641 32.1026L28.3907 29.5891C28.5949 29.386 28.5949 29.0564 28.3907 28.8533L25.8641 26.3398C25.6603 26.1371 25.3301 26.1371 25.1263 26.3398C24.9222 26.5429 24.9222 26.8725 25.1263 27.0756L26.7605 28.7013L2.87714 28.7013H2.75214V28.8263V29.6162Z" fill="white" stroke="white" stroke-width="0.25"/>
<path fill-rule="evenodd" clip-rule="evenodd" d="M14.1625 0.899861C14.3167 1.0541 14.3167 1.30418 14.1625 1.45842L9.42296 6.19796C9.26872 6.3522 9.01864 6.3522 8.8644 6.19796C8.71016 6.04371 8.71016 5.79364 8.8644 5.6394L13.6039 0.899861C13.7582 0.745619 14.0083 0.745619 14.1625 0.899861Z" fill="white" stroke="white" stroke-width="0.5" stroke-linecap="round" stroke-linejoin="round"/>
<path fill-rule="evenodd" clip-rule="evenodd" d="M32.4624 19.7265C32.6167 19.8808 32.6167 20.1308 32.4624 20.2851L28.1178 24.6297C27.9636 24.7839 27.7135 24.7839 27.5593 24.6297C27.405 24.4754 27.405 24.2253 27.5593 24.0711L31.9039 19.7265C32.0581 19.5723 32.3082 19.5723 32.4624 19.7265Z" fill="white" stroke="white" stroke-width="0.5" stroke-linecap="round" stroke-linejoin="round"/>
<path fill-rule="evenodd" clip-rule="evenodd" d="M20.0851 0.898088C20.2403 1.05134 20.2419 1.30142 20.0887 1.45664L9.81969 11.8573C9.66643 12.0125 9.41636 12.0141 9.26114 11.8608C9.10592 11.7076 9.10433 11.4575 9.25759 11.3023L19.5266 0.901646C19.6798 0.746424 19.9299 0.744832 20.0851 0.898088Z" fill="white" stroke="white" stroke-width="0.5" stroke-linecap="round" stroke-linejoin="round"/>
<path fill-rule="evenodd" clip-rule="evenodd" d="M32.594 13.143C32.7482 13.2973 32.7482 13.5473 32.594 13.7016L22.5883 23.7073C22.4341 23.8615 22.184 23.8615 22.0297 23.7073C21.8755 23.553 21.8755 23.303 22.0297 23.1487L32.0354 13.143C32.1897 12.9888 32.4397 12.9888 32.594 13.143Z" fill="white" stroke="white" stroke-width="0.5" stroke-linecap="round" stroke-linejoin="round"/>
<path fill-rule="evenodd" clip-rule="evenodd" d="M26.4085 1.03323C26.5615 1.18871 26.5595 1.43877 26.404 1.59177L9.94731 17.7852C9.79183 17.9382 9.54176 17.9362 9.38877 17.7807C9.23577 17.6252 9.23779 17.3751 9.39327 17.2221L25.85 1.02872C26.0055 0.875729 26.2555 0.877745 26.4085 1.03323Z" fill="white" stroke="white" stroke-width="0.5" stroke-linecap="round" stroke-linejoin="round"/>
<path fill-rule="evenodd" clip-rule="evenodd" d="M32.5941 6.95553C32.7483 7.10977 32.7483 7.35984 32.5941 7.51408L16.0057 24.1025C15.8515 24.2567 15.6014 24.2567 15.4472 24.1025C15.2929 23.9482 15.2929 23.6981 15.4472 23.5439L32.0355 6.95553C32.1898 6.80128 32.4399 6.80128 32.5941 6.95553Z" fill="white" stroke="white" stroke-width="0.5" stroke-linecap="round" stroke-linejoin="round"/>
<path fill-rule="evenodd" clip-rule="evenodd" d="M32.3308 1.03096C32.4851 1.18521 32.4851 1.43528 32.3308 1.58952L9.68639 24.234C9.53215 24.3882 9.28207 24.3882 9.12783 24.234C8.97359 24.0797 8.97359 23.8297 9.12783 23.6754L31.7723 1.03096C31.9265 0.876723 32.1766 0.876723 32.3308 1.03096Z" fill="white" stroke="white" stroke-width="0.5" stroke-linecap="round" stroke-linejoin="round"/>
</svg>
