<svg width="18" height="24" viewBox="0 0 18 24" fill="none" xmlns="http://www.w3.org/2000/svg">
<path d="M0.88501 8.59235C0.88501 10.3319 1.40802 12.0033 2.39798 13.4263C3.27985 14.6939 4.4729 15.6859 5.86771 16.3163V17.6467H5.80057C5.4444 17.6467 5.15604 17.935 5.15604 18.2912C5.15604 18.647 5.4444 18.9357 5.80057 18.9357H5.86771V20.6938C5.86771 21.0496 6.1564 21.3383 6.51224 21.3383H6.57971V22.8294C6.57971 23.1853 6.86841 23.474 7.22424 23.474H11.4953C11.8511 23.474 12.1398 23.1853 12.1398 22.8294V21.3383H12.2073C12.5631 21.3383 12.8518 21.0496 12.8518 20.6938V18.9357H12.9189C13.2751 18.9357 13.5635 18.647 13.5635 18.2912C13.5635 17.935 13.2751 17.6467 12.9189 17.6467H12.8518V16.3163C14.2466 15.6859 15.4397 14.6939 16.3215 13.4263C17.3112 12.0033 17.8345 10.3319 17.8345 8.59235C17.8345 3.91916 14.0328 0.117432 9.35959 0.117432C4.68674 0.117432 0.88501 3.91916 0.88501 8.59235ZM7.86877 10.6606H8.38104L9.61572 11.8956C9.73657 12.0164 9.90073 12.0846 10.0716 12.0846C10.2425 12.0846 10.4066 12.0164 10.5275 11.8956L10.8507 11.5723V15.2441H7.86877V10.6606ZM10.8507 22.1849H7.86877V21.3383H10.8507V22.1849ZM11.5627 20.0492H7.15677V18.9357H11.5627V20.0492ZM7.15677 17.6467V16.5332H11.5627V17.6467H7.15677ZM9.35992 1.40649C13.3221 1.40649 16.5454 4.63016 16.5454 8.59235C16.5454 11.5146 14.822 14.0957 12.1398 15.2193V10.016C12.1398 10.016 12.1398 10.016 12.1398 10.0157V9.30402C12.1398 8.94818 11.8511 8.65948 11.4953 8.65948C11.1391 8.65948 10.8507 8.94818 10.8507 9.30402V9.74914L10.0716 10.5283L9.10379 9.56015C8.98294 9.4393 8.81879 9.37149 8.64792 9.37149H7.86877V9.30402C7.86877 8.94818 7.58041 8.65948 7.22424 8.65948C6.86841 8.65948 6.57971 8.94818 6.57971 9.30402V15.2193C3.89752 14.0957 2.17407 11.5146 2.17407 8.59235C2.17407 4.63016 5.3974 1.40649 9.35992 1.40649Z" fill="white"/>
</svg>
